<svg id="Layer_1" data-name="Layer 1" xmlns="http://www.w3.org/2000/svg" viewBox="0 0 202.16 122.31"><defs><style>.cls-1{fill:#231f20;}</style></defs><title>SVLogo</title><path class="cls-1" d="M82.51,71.72A14.35,14.35,0,0,0,78,66.65a27.33,27.33,0,0,0-7.21-3.49,88.66,88.66,0,0,0-9.53-2.51c-3.16-.68-5.91-1.36-8.23-2a23,23,0,0,1-5.72-2.41,9.61,9.61,0,0,1-3-2.75H36.73a11.63,11.63,0,0,0,.82,2.24,12.72,12.72,0,0,0,4,4.69,24.19,24.19,0,0,0,6.6,3.26c2.6.87,5.64,1.7,9.11,2.51,3.29.74,6.17,1.49,8.65,2.23A26.56,26.56,0,0,1,72.19,71,10.8,10.8,0,0,1,76,74.65a9.81,9.81,0,0,1,1.25,5.16q0,5.76-4.41,8.6T60.47,91.25a36,36,0,0,1-7.25-.7,35,35,0,0,1-6.46-1.95,31,31,0,0,1-5.49-2.93A26.23,26.23,0,0,1,37,82.13l-3.26,5.3A39.36,39.36,0,0,0,60.29,97a40,40,0,0,0,9.58-1.07,21.92,21.92,0,0,0,7.53-3.3,15.79,15.79,0,0,0,4.93-5.58,16.66,16.66,0,0,0,1.77-7.9A15.64,15.64,0,0,0,82.51,71.72ZM71.49,32a32.43,32.43,0,0,0-11.76-2,33.58,33.58,0,0,0-9.49,1.26,23,23,0,0,0-7.44,3.62,16.08,16.08,0,0,0-4.88,6A17.78,17.78,0,0,0,36.23,48H42.9a11,11,0,0,1,4-8.93q4-3.3,12.74-3.3a27.22,27.22,0,0,1,10.6,1.95,20.16,20.16,0,0,1,7.44,5.11l3.16-5.2A31.4,31.4,0,0,0,71.49,32Z" transform="translate(-3.98 -3.02)"/><path class="cls-1" d="M172.53,30.43,165.41,48H172l7.31-17.53Zm-9.35,23L149,88.36,134.76,53.44h-6.58l17.94,43h5.67l17.94-43Zm-37.8-23h-6.79L125.9,48h6.63Z" transform="translate(-3.98 -3.02)"/><path class="cls-1" d="M99.58,53.44v64h5.48v-64Zm0-38.24V48h5.48V15.2Z" transform="translate(-3.98 -3.02)"/><polygon class="cls-1" points="5.95 115.47 17.58 115.47 17.58 122.01 0 122.01 0 0.4 17.76 0.4 17.76 6.94 5.95 6.94 5.95 115.47"/><polygon class="cls-1" points="202.16 0 202.16 122.31 184.59 122.31 184.59 115.73 196.21 115.73 196.21 6.57 184.4 6.57 184.4 0 202.16 0"/></svg>